<svg xmlns="http://www.w3.org/2000/svg" width="552" height="422" viewBox="0 0 552 422" fill="none"><rect x="0.5" y="0.5" width="551" height="421" fill="white" stroke="#E2E2E2"></rect><g clip-path="url(#clip0)"><path d="M326.809 208.015C326.809 208.015 323.441 208.823 320.592 209.506L316.261 210.498C316.249 210.498 316.232 210.498 316.221 210.498C316.221 209.322 316.306 208.084 316.586 206.942C316.945 205.48 317.731 203.771 319.099 203.02C320.586 202.205 322.398 202.108 323.971 202.739C325.601 203.387 326.347 204.969 326.667 206.61C326.758 207.069 326.815 207.527 326.86 207.992L326.809 208.015ZM338.104 210.498C338.104 199.125 330.986 194.239 321.891 194.239C311.611 194.239 305.171 201.402 305.171 210.555C305.171 220.506 310.653 226.987 322.455 226.987C328.838 226.987 332.451 225.851 336.747 223.689L335.112 216.239C331.835 217.719 328.786 218.625 324.718 218.625C320.255 218.625 317.714 216.921 316.751 213.738H337.819C337.99 212.884 338.104 211.915 338.104 210.498Z" fill="#92003B"></path><path d="M232.262 208.015C232.262 208.015 228.894 208.823 226.045 209.506L221.714 210.498C221.703 210.498 221.686 210.498 221.674 210.498C221.674 209.322 221.76 208.084 222.039 206.942C222.398 205.48 223.184 203.771 224.552 203.02C226.039 202.205 227.852 202.108 229.424 202.739C231.054 203.387 231.801 204.969 232.12 206.61C232.211 207.069 232.268 207.527 232.314 207.992L232.262 208.015ZM243.557 210.498C243.557 199.125 236.439 194.239 227.344 194.239C217.064 194.239 210.624 201.402 210.624 210.555C210.624 220.506 216.107 226.987 227.909 226.987C234.291 226.987 237.904 225.851 242.201 223.689L240.565 216.239C237.289 217.719 234.24 218.625 230.171 218.625C225.709 218.625 223.167 216.921 222.204 213.738H243.272C243.443 212.884 243.557 211.915 243.557 210.498Z" fill="#92003B"></path><path d="M206.202 185.883H195.768V225.845H206.202V185.883Z" fill="#92003B"></path><path d="M340.303 195.26H351.262L353.57 202.326C355.011 198.839 358.26 194.354 364.021 194.354C371.931 194.354 376.222 198.391 376.222 208.795V225.851H365.263C365.263 222.295 365.269 218.745 365.275 215.189C365.275 213.561 365.246 211.932 365.269 210.303C365.286 208.801 365.394 207.246 364.597 205.899C364.055 204.987 363.172 204.316 362.22 203.857C360.288 202.928 358.191 202.951 356.294 203.949C355.826 204.195 353.57 205.423 353.57 205.99V225.851H342.611V203.513L340.303 195.26Z" fill="#92003B"></path><path d="M384.508 203.278H379.482V195.26H384.508V190.248L395.467 187.65V195.26H406.482V203.278H395.467V212.259C395.467 215.786 397.159 217.432 399.701 217.432C402.299 217.432 403.77 217.088 405.969 216.354L407.269 224.652C404.277 225.96 400.55 226.585 396.76 226.585C388.794 226.585 384.502 222.777 384.502 215.384V203.278H384.508Z" fill="#92003B"></path><path d="M426.986 217.885C430.998 217.885 433.369 214.983 433.369 210.326C433.369 205.669 431.112 202.991 427.157 202.991C423.145 202.991 420.832 205.663 420.832 210.492C420.832 215.046 423.088 217.885 426.986 217.885ZM427.1 194.067C437.38 194.067 444.891 200.548 444.891 210.607C444.891 220.724 437.38 226.809 426.986 226.809C416.649 226.809 409.303 220.558 409.303 210.607C409.303 200.548 416.592 194.067 427.1 194.067Z" fill="#92003B"></path><path d="M295.353 195.168C293.415 194.365 291.221 194.067 289.124 194.371C288.058 194.526 287.016 194.836 286.047 195.317C283.391 196.637 281.323 199.647 280.211 202.332C279.482 199.24 277.356 196.465 274.25 195.174C272.313 194.371 270.119 194.073 268.022 194.377C266.956 194.532 265.913 194.841 264.945 195.323C262.295 196.637 260.232 199.636 259.115 202.314V202.119L256.881 195.272H245.922L248.23 203.524V225.857H259.115V205.893C259.155 205.744 259.639 205.469 259.725 205.406C261.001 204.494 262.5 203.553 264.095 203.438C265.725 203.318 267.332 204.15 268.301 205.451C268.404 205.595 268.501 205.738 268.592 205.887C269.39 207.235 269.281 208.789 269.264 210.292C269.247 211.921 269.27 213.549 269.27 215.178C269.264 218.734 269.258 222.284 269.258 225.84H280.217V208.789C280.217 208.703 280.217 208.617 280.217 208.537V205.904C280.24 205.761 280.741 205.474 280.832 205.411C282.109 204.499 283.608 203.559 285.203 203.444C286.833 203.324 288.44 204.155 289.409 205.457C289.512 205.601 289.608 205.744 289.7 205.893C290.497 207.241 290.389 208.795 290.372 210.298C290.355 211.926 290.378 213.555 290.378 215.184C290.372 218.74 290.366 222.29 290.366 225.845H301.325V208.789C301.325 203.788 300.613 197.348 295.353 195.168Z" fill="#92003B"></path><path d="M470.808 194.354C465.047 194.354 461.804 198.844 460.357 202.326L458.049 195.26H447.09L449.398 203.513V225.845H460.357V205.21C461.918 204.935 470.392 206.507 471.999 207.097V194.394C471.612 194.371 471.218 194.354 470.808 194.354Z" fill="#92003B"></path><path d="M180.051 208.015C180.051 208.015 176.683 208.823 173.834 209.506L169.503 210.498C169.492 210.498 169.475 210.498 169.463 210.498C169.463 209.322 169.549 208.084 169.828 206.942C170.187 205.48 170.973 203.771 172.341 203.02C173.828 202.205 175.641 202.108 177.213 202.739C178.843 203.387 179.59 204.969 179.909 206.61C180 207.069 180.057 207.527 180.103 207.992L180.051 208.015ZM191.346 210.498C191.346 199.125 184.228 194.239 175.133 194.239C164.853 194.239 158.413 201.402 158.413 210.555C158.413 220.506 163.896 226.987 175.697 226.987C182.08 226.987 185.693 225.851 189.99 223.689L188.354 216.239C185.078 217.719 182.029 218.625 177.96 218.625C173.498 218.625 170.956 216.921 169.993 213.738H191.061C191.232 212.884 191.346 211.915 191.346 210.498Z" fill="#92003B"></path><path d="M111.303 179.5C94.013 179.5 80 193.603 80 211.003C80 228.397 94.013 242.506 111.303 242.506C128.593 242.506 142.606 228.403 142.606 211.003C142.6 193.603 128.587 179.5 111.303 179.5ZM103.479 224.125H98.2642V197.875H103.479V224.125ZM124.341 224.125H108.693V218.877H124.341V224.125ZM124.341 213.624H108.693V208.376H124.341V213.624ZM124.341 203.123H108.693V197.875H124.341V203.123Z" fill="#92003B"></path></g><defs><clipPath id="clip0"><rect width="392" height="63" fill="white" transform="translate(80 179.5)"></rect></clipPath></defs></svg>